HIERARCHY
ROOT root
{
	OFFSET	0	13.1	24.9
	CHANNELS 6  Xposition Yposition Zposition Xrotation Yrotation Zrotation
	JOINT spine_1
	{
		OFFSET	0	9.99999	0
		CHANNELS 3  Xrotation Yrotation Zrotation
		JOINT spine_2
		{
			OFFSET	0	112	-10
			CHANNELS 3  Xrotation Yrotation Zrotation
			JOINT spine_3
			{
				OFFSET	0	206.5	19.3
				CHANNELS 3  Xrotation Yrotation Zrotation
				JOINT spine_4
				{
					OFFSET	0	110.4	14.6
					CHANNELS 3  Xrotation Yrotation Zrotation
					JOINT neck_1
					{
						OFFSET	0	71.8	-50.3
						CHANNELS 3  Xrotation Yrotation Zrotation
						JOINT neck_2
						{
							OFFSET	0	86.2	-25.8
							CHANNELS 3  Xrotation Yrotation Zrotation
							JOINT head_ee
							{
								OFFSET	0	179.8	-8.7
								CHANNELS 3  Xrotation Yrotation Zrotation
								End Site
								{
									OFFSET	1	0	0
								}
							}
						}
					}
					JOINT left_clavicle
					{
						OFFSET	-43.2	22.4	-70.8
						CHANNELS 3  Xrotation Yrotation Zrotation
						JOINT left_shoulder
						{
							OFFSET	-93.9	-5.79999	48.7
							CHANNELS 3  Xrotation Yrotation Zrotation
							JOINT left_elbow
							{
								OFFSET	-291.4	-30.8	15.2
								CHANNELS 3  Xrotation Yrotation Zrotation
								JOINT left_lowarm_twist
								{
									OFFSET	-110.7	-3.89999	13.6
									CHANNELS 3  Xrotation Yrotation Zrotation
									JOINT left_hand
									{
										OFFSET	-110.7	-3.89999	13.6
										CHANNELS 3  Xrotation Yrotation Zrotation
										JOINT left_ee
										{
											OFFSET	-80.8	-5.10001	12.1
											CHANNELS 3  Xrotation Yrotation Zrotation
											End Site
											{
												OFFSET	1	0	0
											}
										}
									}
								}
							}
						}
					}
					JOINT right_clavicle
					{
						OFFSET	43.2	22.4	-70.8
						CHANNELS 3  Xrotation Yrotation Zrotation
						JOINT right_shoulder
						{
							OFFSET	93.9	-5.79999	48.7
							CHANNELS 3  Xrotation Yrotation Zrotation
							JOINT right_elbow
							{
								OFFSET	291.4	-30.8	15.2
								CHANNELS 3  Xrotation Yrotation Zrotation
								JOINT right_lowarm_twist
								{
									OFFSET	110.7	-3.89999	13.6
									CHANNELS 3  Xrotation Yrotation Zrotation
									JOINT right_hand
									{
										OFFSET	110.7	-3.89999	13.6
										CHANNELS 3  Xrotation Yrotation Zrotation
										JOINT right_ee
										{
											OFFSET	80.8	-5.10001	12.1
											CHANNELS 3  Xrotation Yrotation Zrotation
											End Site
											{
												OFFSET	1	0	0
											}
										}
									}
								}
							}
						}
					}
				}
			}
		}
	}
	JOINT left_hip
	{
		OFFSET	-82.8	-127.5	0.300001
		CHANNELS 3  Xrotation Yrotation Zrotation
		JOINT left_knee
		{
			OFFSET	-28.2	-396.7	2.2
			CHANNELS 3  Xrotation Yrotation Zrotation
			JOINT left_ankle
			{
				OFFSET	-11.7	-411.3	35.4
				CHANNELS 3  Xrotation Yrotation Zrotation
				JOINT left_toes
				{
					OFFSET	0	-60	-88.6
					CHANNELS 3  Xrotation Yrotation Zrotation
					JOINT left_foot_ee
					{
						OFFSET	-22.5	-16.5	-42.2
						CHANNELS 3  Xrotation Yrotation Zrotation
						End Site
						{
							OFFSET	1	0	0
						}
					}
				}
			}
		}
	}
	JOINT right_hip
	{
		OFFSET	82.8	-127.5	0.300001
		CHANNELS 3  Xrotation Yrotation Zrotation
		JOINT right_knee
		{
			OFFSET	28.2	-396.7	2.2
			CHANNELS 3  Xrotation Yrotation Zrotation
			JOINT right_ankle
			{
				OFFSET	11.7	-411.3	35.4
				CHANNELS 3  Xrotation Yrotation Zrotation
				JOINT right_toes
				{
					OFFSET	0	-60	-88.6
					CHANNELS 3  Xrotation Yrotation Zrotation
					JOINT right_foot_ee
					{
						OFFSET	22.5	-16.5	-42.2
						CHANNELS 3  Xrotation Yrotation Zrotation
						End Site
						{
							OFFSET	1	0	0
						}
					}
				}
			}
		}
	}
}
MOTION
Frames: 6
Frame Time: 0.02
3462.17752991 734.202 -1545.12148185 71.1083605247 79.7449506793 -65.741841831 -5.57675 -0.0214484 -2.59996 -5.573 0.143981 -2.59606 -5.57343 0.927314 -2.42917 -5.58127 0.532167 -2.54504 -6.1682 3.21363 8.95198 -5.94236 -0.653725 9.63292 -0.0 0.0 -0.0 7.74639 -6.6811 15.0586 -1.75186 -7.37052 61.34 1.71961 -40.4224 0.633116 -57.8063 -5.01127 5.02766 -0.517134 7.08949 -0.410274 -0.0 0.0 -0.0 6.03865 8.02825 -11.4544 0.121669 24.8552 -56.0895 0.927389 24.6737 -0.202833 36.1253 0.163215 4.53635 0.0493445 -6.75419 -3.13822 0.0 0.0 0.0 9.18147 -4.45504 -10.41 -43.1147 -0.676717 6.42871 9.0131 8.7495 -1.28556 -9.77592 0.0 0.0 -0.0 0.0 -0.0 -12.7357 9.74461 -16.6899 -10.5914 -0.289128 -1.59741 39.6623 -23.211 5.08063 -25.8342 0.0 0.0 0.0 0.0 0.0 
3465.74821627 734.202 -1550.51770501 57.9107738059 78.5323395406 -52.3064478041 -5.57675 -0.0214484 -2.59996 -5.573 0.143981 -2.59606 -5.57343 0.927314 -2.42917 -5.58127 0.532167 -2.54504 -6.1682 3.21363 8.95198 -5.94236 -0.653725 9.63292 -0.0 0.0 -0.0 7.74639 -6.6811 15.0586 -1.75186 -7.37052 61.34 1.71961 -40.4224 0.633116 -57.8063 -5.01127 5.02766 -0.517134 7.08949 -0.410274 -0.0 0.0 -0.0 6.03865 8.02825 -11.4544 0.121669 24.8552 -56.0895 0.927389 24.6737 -0.202833 36.1253 0.163215 4.53635 0.0493445 -6.75419 -3.13822 0.0 0.0 0.0 9.18147 -4.45504 -10.41 -43.1147 -0.676717 6.42871 9.0131 8.7495 -1.28556 -9.77592 0.0 0.0 -0.0 0.0 -0.0 -12.7357 9.74461 -16.6899 -10.5914 -0.289128 -1.59741 39.6623 -23.211 5.08063 -25.8342 0.0 0.0 0.0 0.0 0.0 
3424.19726747 735.188 -1539.30163364 133.439058559 75.6160185799 -129.86749034 -6.04994 -0.174239 -2.51175 -6.04643 -0.014109 -2.51774 -6.03917 0.772244 -2.3965 -6.04697 0.384194 -2.48831 -6.38159 2.19838 7.91423 -6.20208 -1.73293 8.38785 -0.0 0.0 -0.0 7.82271 -8.28088 15.1845 -5.83371 -3.52985 62.6919 1.34793 -33.7304 0.408656 -56.3186 -4.82879 4.9719 0.467717 12.4872 8.11576 -0.0 0.0 -0.0 6.42105 2.79569 -12.4061 7.9482 27.5888 -56.4707 1.15605 29.7976 -0.307585 33.9501 0.0725329 4.2735 -0.650151 -5.79147 1.83566 0.0 0.0 0.0 16.2935 14.0205 -14.5579 -38.7704 -0.390402 5.82539 2.96612 -7.07848 -0.446776 -12.9599 0.0 0.0 -0.0 0.0 -0.0 -15.0966 10.1239 -15.3508 -11.2287 -0.297046 -1.69487 39.4383 -18.6624 4.94699 -28.4957 0.0 0.0 0.0 0.0 0.0 
3411.18884935 731.442 -1531.46501768 140.062944215 72.4520707831 -136.967686871 -6.25707 -0.00162769 -2.51272 -6.25357 0.158216 -2.50774 -6.2544 0.941732 -2.32968 -6.26154 0.562102 -2.44908 -5.79991 3.63094 8.01051 -5.62238 0.759215 8.76743 -0.0 0.0 -0.0 7.91471 -9.49202 15.3466 -6.37566 -0.890571 62.8416 1.17832 -30.2713 0.318733 -57.1475 -4.93028 5.00355 0.996056 14.7121 12.3058 -0.0 0.0 -0.0 5.72589 0.631848 -11.0661 12.0596 29.1173 -57.9358 1.25563 31.8803 -0.358639 34.5833 0.0978977 4.35036 -0.960498 -7.77715 2.9916 0.0 0.0 0.0 20.4972 27.4422 -18.5801 -36.5969 -0.264579 5.51598 -2.69684 -16.116 0.436799 -16.3049 0.0 0.0 -0.0 0.0 -0.0 -16.4431 10.2218 -15.5328 -11.5809 -0.300956 -1.74877 40.2305 -18.4852 5.01615 -27.4543 0.0 0.0 0.0 0.0 0.0 
3410.66870626 731.442 -1529.94580001 141.118655341 72.0406963957 -138.076178315 -6.25707 -0.00162769 -2.51272 -6.25357 0.158216 -2.50774 -6.2544 0.941732 -2.32968 -6.26154 0.562102 -2.44908 -5.79991 3.63094 8.01051 -5.62238 0.759215 8.76743 -0.0 0.0 -0.0 7.91471 -9.49202 15.3466 -6.37566 -0.890571 62.8416 1.17832 -30.2713 0.318733 -57.1475 -4.93028 5.00355 0.996056 14.7121 12.3058 -0.0 0.0 -0.0 5.72589 0.631848 -11.0661 12.0596 29.1173 -57.9358 1.25563 31.8803 -0.358639 34.5833 0.0978977 4.35036 -0.960498 -7.77715 2.9916 0.0 0.0 0.0 20.4972 27.4422 -18.5801 -36.5969 -0.264579 5.51598 -2.69684 -16.116 0.436799 -16.3049 0.0 0.0 -0.0 0.0 -0.0 -16.4431 10.2218 -15.5328 -11.5809 -0.300956 -1.74877 40.2305 -18.4852 5.01615 -27.4543 0.0 0.0 0.0 0.0 0.0 
3405.11691933 730.392 -1526.36557005 146.753282599 69.8055881384 -144.355660062 -6.35137 -0.0364069 -2.39768 -6.34818 0.116193 -2.39514 -6.34728 0.86987 -2.23471 -6.35389 0.506126 -2.34397 -5.57303 2.72403 8.32088 -5.37617 -1.17991 8.9299 -0.0 0.0 -0.0 7.05397 -9.38825 13.5257 -8.26863 -1.92749 64.1865 1.11055 -28.8158 0.285312 -54.5753 -4.61686 4.90054 1.61744 13.96 16.0558 -0.0 0.0 -0.0 5.1887 -0.867313 -10.0536 15.2629 30.6254 -59.262 1.3748 34.2545 -0.423679 34.7152 0.10329 4.36634 -1.15214 -7.38284 4.41303 0.0 0.0 0.0 21.1245 29.2219 -17.8903 -32.9181 -0.0787226 4.98236 -2.77655 -16.3635 0.450692 -17.7243 0.0 0.0 -0.0 0.0 -0.0 -16.906 10.8335 -15.6397 -9.80912 -0.277928 -1.4779 40.4776 -15.7736 4.98761 -30.4533 0.0 0.0 0.0 0.0 0.0 
